# xmcd
# 
# Track frame offsets:
#     150
#     21369
#     45762
#     73916
#     97453
#     125960
#     153715
#     180911
#     201675
#     220039
#     249310
#     269284
#     293655
#     309512
#     332138
# 
# Disc length: 4703
# 
# Revision: 2
# Processed by: cddbd v1.5.2PL0 Copyright (c) Steve Scherf et al.
# Submitted via: fre:ac v1.0.17
# 
DISCID=e9125d0f
DTITLE=Haruki Murakami - Die Pilgerjahre des farblosen Herrn Tazaki [CD1]
DYEAR=2014
DGENRE=Hörbuch
TTITLE0=Die Pilgerjahre des farblosen Herrn Tazaki 001 [CD1]
TTITLE1=Die Pilgerjahre des farblosen Herrn Tazaki 002 [CD1]
TTITLE2=Die Pilgerjahre des farblosen Herrn Tazaki 003 [CD1]
TTITLE3=Die Pilgerjahre des farblosen Herrn Tazaki 004 [CD1]
TTITLE4=Die Pilgerjahre des farblosen Herrn Tazaki 005 [CD1]
TTITLE5=Die Pilgerjahre des farblosen Herrn Tazaki 006 [CD1]
TTITLE6=Die Pilgerjahre des farblosen Herrn Tazaki 007 [CD1]
TTITLE7=Die Pilgerjahre des farblosen Herrn Tazaki 008 [CD1]
TTITLE8=Die Pilgerjahre des farblosen Herrn Tazaki 009 [CD1]
TTITLE9=Die Pilgerjahre des farblosen Herrn Tazaki 010 [CD1]
TTITLE10=Die Pilgerjahre des farblosen Herrn Tazaki 011 [CD1]
TTITLE11=Die Pilgerjahre des farblosen Herrn Tazaki 012 [CD1]
TTITLE12=Die Pilgerjahre des farblosen Herrn Tazaki 013 [CD1]
TTITLE13=Die Pilgerjahre des farblosen Herrn Tazaki 014 [CD1]
TTITLE14=Die Pilgerjahre des farblosen Herrn Tazaki 015 [CD1]
EXTD=YEAR: 2014
EXTT0=
EXTT1=
EXTT2=
EXTT3=
EXTT4=
EXTT5=
EXTT6=
EXTT7=
EXTT8=
EXTT9=
EXTT10=
EXTT11=
EXTT12=
EXTT13=
EXTT14=
PLAYORDER=
